<?xml version="1.0" encoding="UTF-8" standalone="no" ?>
<!DOCTYPE svg PUBLIC "-//W3C//DTD SVG 1.1//EN" "http://www.w3.org/Graphics/SVG/1.1/DTD/svg11.dtd">
<svg xmlns="http://www.w3.org/2000/svg" xmlns:xlink="http://www.w3.org/1999/xlink" version="1.1" width="83.48479999999999" height="81.8534" xml:space="preserve">
<desc>Created with Fabric.js 1.6.0-rc.1</desc>
<defs></defs>
<g style="stroke: none; stroke-width: 1; stroke-dasharray: none; stroke-linecap: butt; stroke-linejoin: miter; stroke-miterlimit: 10; fill: none; fill-rule: nonzero; opacity: 1;" transform="translate(10 9.999999999999996) scale(0.06 0.06)" >
  <path d="M 528.54 133.602 c 218.113 0 394.94 176.823 394.94 394.941 c 0 218.118 -176.827 394.941 -394.94 394.941 c -218.123 0 -394.941 -176.823 -394.941 -394.941 c 0 -218.118 176.818 -394.941 394.941 -394.941 z" style="stroke: none; stroke-width: 1; stroke-dasharray: none; stroke-linecap: butt; stroke-linejoin: miter; stroke-miterlimit: 10; fill: #f54747; fill-rule: nonzero; opacity: 0;" transform="" stroke-linecap="round" />
  <path d="M 528.54 331.856 c 108.624 0 196.687 88.063 196.687 196.687 c 0 108.625 -88.063 196.688 -196.687 196.688 c -108.625 0 -196.688 -88.063 -196.688 -196.688 c 0 -108.625 88.063 -196.687 196.688 -196.687 z" style="stroke: none; stroke-width: 1; stroke-dasharray: none; stroke-linecap: butt; stroke-linejoin: miter; stroke-miterlimit: 10; fill: #475b5c; fill-rule: nonzero; opacity: 0;" transform="" stroke-linecap="round" />
  <path d="M 398.591 281.599 s -94.366 -8.932 -87.968 178.454 c 0 0 2.458 139.922 81.006 144.829 c 0 0 83.729 11.896 91.094 -145.196 c -0.009 0 11.509 -178.156 -84.132 -178.087 z m 277.384 307.812 s -80.963 8.992 -80.963 -124.108 V 318.017 s 1.619 -21.821 16.888 -20.729 c 0 0 16.769 -2.18 16.769 20.729 l 1.293 142.926 s -2.595 9.814 11.587 10.906 c 0 0 14.858 2.18 14.858 -9.818 v -145.65 s 1.199 -19.205 19.337 -19.153 c 0 0 15.201 0.064 14.104 18.609 l 0.771 144.014 s 1.927 8.727 14.293 7.635 c 0 0 4.11 4.363 17.265 -6.543 V 318.017 s -0.068 -21.928 16.289 -20.789 c 0 0 10.02 -1.028 10.02 19.697 v 151.653 s 18.464 116.187 -72.511 120.833 z" style="stroke: none; stroke-width: 1; stroke-dasharray: none; stroke-linecap: butt; stroke-linejoin: miter; stroke-miterlimit: 10; fill: #f54747; fill-rule: nonzero; opacity: 1;" transform="" stroke-linecap="round" />
  <path d="M 1015.542 322.804 c -26.626 -62.94 -64.735 -119.462 -113.267 -167.994 c -48.54 -48.532 -105.062 -86.649 -167.998 -113.271 C 669.106 13.985 599.884 0 528.547 0 C 457.193 0 387.98 13.977 322.808 41.539 C 259.864 68.16 203.342 106.278 154.81 154.81 S 68.169 259.863 41.552 322.804 C 13.985 387.975 0 457.193 0 528.543 c 0 71.342 13.985 140.563 41.552 205.73 c 26.617 62.94 64.726 119.462 113.258 168.002 c 23.662 23.653 49.216 44.815 76.484 63.395 a 696.089 696.089 0 0 0 24.947 17.813 c 45.654 31.062 81.177 46.408 107.631 46.408 c 8.179 0 15.5 -1.469 21.983 -4.39 c 19.757 -8.914 29.648 -29.527 29.375 -61.283 l 1.199 -393.527 l -30.128 -0.095 l -1.747 393.622 v 0.185 c 0 13.064 -1.293 29.614 -11.416 34.179 c -7.716 3.489 -32.723 6.615 -100.386 -39.355 c -6.826 -4.642 -13.309 -9.373 -19.646 -14.036 c 0 0 -6.072 -4.771 -9.292 -7.014 c -25.854 -19.654 -45.517 -35.836 -45.517 -35.836 C 94.828 810.849 29.511 677.175 29.511 528.535 c 0 -275.158 223.869 -499.013 499.027 -499.013 c 275.148 0 499.018 223.855 499.018 499.013 c 0 149.924 -66.481 284.6 -171.483 376.152 c -13.137 10.876 -32.44 26.192 -53.652 40.79 c -9.771 6.427 -29.435 18.853 -29.435 18.853 c -47.94 28.137 -69.539 25.427 -76.142 22.442 c -10.14 -4.564 -14.122 -21.105 -14.122 -34.188 v -0.09 l 0.96 -393.716 l -28.467 0.085 l 1.722 393.537 c -0.283 31.746 9.865 52.368 29.622 61.287 c 6.482 2.925 13.934 4.389 22.112 4.389 c 24.964 0 58.089 -13.685 100.103 -41.338 a 527.1 527.1 0 0 0 73.024 -55.083 c 6.868 -5.818 11.193 -10.362 11.193 -10.362 a 559.383 559.383 0 0 0 9.283 -9.026 c 48.531 -48.54 86.649 -105.062 113.274 -168.002 c 27.559 -65.167 41.535 -134.385 41.535 -205.73 c -0.01 -71.342 -13.982 -140.559 -41.541 -205.731 z" style="stroke: none; stroke-width: 1; stroke-dasharray: none; stroke-linecap: butt; stroke-linejoin: miter; stroke-miterlimit: 10; fill: #f54747; fill-rule: nonzero; opacity: 1;" transform="" stroke-linecap="round" />
</g>
</svg>